<svg width="160" height="39" xmlns="http://www.w3.org/2000/svg" class="logo_efforce">

 <g>
  <title>background</title>
  <rect fill="none" id="canvas_background" height="402" width="582" y="-1" x="-1"/>
 </g>
 <g>
  <title>Layer 1</title>
  <g id="svg_1">
   <polygon fill="#ffffff" id="svg_2" points="55.5,24.6 47.1,24.6 47.1,21.9 53.3,21.9 53.3,17.3 47.1,17.3 47.1,14.4 55,14.4 55,9.8 42,9.8 42,29.2                     55.5,29.2"/>
   <polygon fill="#ffffff" id="svg_3" points="57.8,29.2 62.8,29.2 62.8,22.7 69.6,22.7 69.6,18.1 62.8,18.1 62.8,14.4 71.2,14.4 71.2,9.8                     57.8,9.8"/>
   <polygon fill="#ffffff" id="svg_4" points="78.3,14.4 86.6,14.4 86.6,9.8 73.2,9.8 73.2,29.2 78.3,29.2 78.3,22.7 85.1,22.7 85.1,18.1                     78.3,18.1"/>
   <path fill="#ffffff" id="svg_5" d="m121.6,22.5c2.1,-1 3.3,-2.9 3.3,-5.8c0,-4 -2.2,-6.9 -7.1,-6.9l-7.8,0l0,19.4l5.1,0l0,-6l1.2,0l3.7,5.9l6.1,0l-4.5,-6.6l0,0zm-4.9,-3.7l-1.6,0l0,-4.5l1.6,0c1.9,0 2.8,1 2.8,2.2c0,1.5 -1.2,2.3 -2.8,2.3l0,0z"/>
   <polygon fill="#ffffff" id="svg_6" points="152.39999389648438,21.899999618530273 158.60000610351562,21.899999618530273 158.60000610351562,17.299999237060547 152.39999389648438,17.299999237060547 152.39999389648438,14.399999618530273 160.3000030517578,14.399999618530273 160.3000030517578,9.800000190734863 147.39999389648438,9.800000190734863 147.39999389648438,29.200000762939453 160.89999389648438,29.200000762939453 160.89999389648438,24.600000381469727 152.39999389648438,24.600000381469727 "/>
   <path fill="#ffffff" id="svg_7" d="m107.8,19.5c0,-5.6 -4.5,-10.1 -10.1,-10.1c-5.6,0 -10.1,4.5 -10.1,10.1s4.5,10.1 10.1,10.1c2.7,0 5.2,-1.1 7.1,-3c1.9,-1.9 3,-4.4 3,-7.1zm-10.1,5.1c-2.8,0 -5.1,-2.3 -5.1,-5.1c0,-2.8 2.3,-5.1 5.1,-5.1c2.8,0 5.1,2.3 5.1,5.1c0,2.8 -2.3,5.1 -5.1,5.1l0,0z"/>
   <path fill="#ffffff" id="svg_8" d="m136.5,29.6c3.1,0 6.1,-1.5 8,-3.9l-3.9,-3.2c-1.3,1.8 -3.6,2.5 -5.7,1.9s-3.5,-2.6 -3.5,-4.8s1.4,-4.2 3.5,-4.8c2.1,-0.7 4.4,0.1 5.7,1.9l3.9,-3.1c-2.9,-3.8 -8,-5 -12.3,-3c-4.3,2 -6.6,6.7 -5.6,11.3c1.1,4.4 5.2,7.7 9.9,7.7l0,0z"/>
   <path fill="#ffffff" id="svg_9" d="m17,0l-16.8,9.8l0,0l0,0l0,19.5l0,0l16.8,9.7l0,0l16.9,-9.7l0,0l0,-19.5l0,0l-16.9,-9.8zm11.2,13l-5.6,3.2l0,0l-5.6,-3.2l0,0l-5.6,3.2l0,0l0,0l5.6,3.2l-5.6,3.2l0,0l5.6,3.4l0,0l0,0l5.6,-3.2l0,0l5.6,3.2l0,0l-11.2,6.5l0,0l-11.2,-6.5l0,0l0,-13l0,0l0,0l11.2,-6.5l0,0l11.2,6.5l0,0z"/>
   <path id="svg_10" d="m32.1,2.4c0.3,-0.1 0.5,-0.3 0.5,-0.6c0,-0.7 -0.6,-0.7 -0.9,-0.7l-1.1,0l-0.1,2.6l0.3,0l0,-1.1l0.7,0c0.6,0 0.7,0.3 0.7,0.5c0,0.2 0,0.4 0.1,0.6l0.3,0c0,-0.1 0,-0.2 -0.1,-0.7c0,-0.2 -0.1,-0.5 -0.4,-0.6l0,0zm-1.2,-0.1l0,-1l0.7,0c0.2,0 0.7,0 0.6,0.5s-0.5,0.5 -0.7,0.5l-0.6,0z"/>
   <path id="svg_11" d="m31.5,0l0,0c-0.6,0 -1.2,0.2 -1.6,0.7c-0.4,0.4 -0.7,1 -0.7,1.6c0.1,1.2 1.1,2.2 2.3,2.2s2.3,-1 2.3,-2.2c0,-0.6 -0.2,-1.2 -0.7,-1.7s-0.9,-0.6 -1.6,-0.6zm0,4.4c-0.5,0 -1.1,-0.2 -1.4,-0.6s-0.6,-0.9 -0.6,-1.4c0,-0.5 0.2,-1.1 0.6,-1.5s0.9,-0.6 1.4,-0.6l0,0c0.5,0 1.1,0.2 1.4,0.6c0.4,0.4 0.6,0.9 0.6,1.5c0,0.5 -0.2,1.1 -0.6,1.4s-0.8,0.6 -1.4,0.6l0,0z"/>
  </g>
  <text xml:space="preserve" text-anchor="start" font-family="Helvetica, Arial, sans-serif" font-size="24" id="svg_12" y="16.953125" x="-32.5" stroke-width="0" stroke="#000" fill="#000000"/>
 </g>
</svg>