<svg version="1.1" class="logo_efforce" xmlns="http://www.w3.org/2000/svg" xmlns:xlink="http://www.w3.org/1999/xlink" x="0px" y="0px" viewBox="0 0 160 39" style="enable-background:new 0 0 160 39;" xml:space="preserve">
                <g transform="translate(0.000000, -0.000000)">
                    <polygon points="55.5,24.6 47.1,24.6 47.1,21.9 53.3,21.9 53.3,17.3 47.1,17.3 47.1,14.4 55,14.4 55,9.8 42,9.8 42,29.2
                    55.5,29.2"></polygon>
                    <polygon points="57.8,29.2 62.8,29.2 62.8,22.7 69.6,22.7 69.6,18.1 62.8,18.1 62.8,14.4 71.2,14.4 71.2,9.8
                    57.8,9.8"></polygon>
                    <polygon points="78.3,14.4 86.6,14.4 86.6,9.8 73.2,9.8 73.2,29.2 78.3,29.2 78.3,22.7 85.1,22.7 85.1,18.1
                    78.3,18.1"></polygon>
                    <path d="M121.6,22.5c2.1-1,3.3-2.9,3.3-5.8c0-4-2.2-6.9-7.1-6.9h-7.8v19.4h5.1v-6h1.2l3.7,5.9h6.1L121.6,22.5
                    L121.6,22.5z M116.7,18.8h-1.6v-4.5h1.6c1.9,0,2.8,1,2.8,2.2C119.5,18,118.3,18.8,116.7,18.8L116.7,18.8z"></path>
                    <polygon points="151.4,21.9 157.6,21.9 157.6,17.3 151.4,17.3 151.4,14.4 159.3,14.4 159.3,9.8 146.4,9.8 146.4,29.2
                    159.9,29.2 159.9,24.6 151.4,24.6"></polygon>
                    <path d="M107.8,19.5c0-5.6-4.5-10.1-10.1-10.1c-5.6,0-10.1,4.5-10.1,10.1s4.5,10.1,10.1,10.1c2.7,0,5.2-1.1,7.1-3
                    C106.7,24.7,107.8,22.2,107.8,19.5z M97.7,24.6c-2.8,0-5.1-2.3-5.1-5.1c0-2.8,2.3-5.1,5.1-5.1c2.8,0,5.1,2.3,5.1,5.1
                    C102.8,22.3,100.5,24.6,97.7,24.6L97.7,24.6z"></path>
                    <path d="M136.5,29.6c3.1,0,6.1-1.5,8-3.9l-3.9-3.2c-1.3,1.8-3.6,2.5-5.7,1.9s-3.5-2.6-3.5-4.8s1.4-4.2,3.5-4.8
                    c2.1-0.7,4.4,0.1,5.7,1.9l3.9-3.1c-2.9-3.8-8-5-12.3-3c-4.3,2-6.6,6.7-5.6,11.3C127.7,26.3,131.8,29.6,136.5,29.6L136.5,29.6z"></path>
                    <path d="M17,0L0.2,9.8l0,0h0v19.5l0,0L17,39l0,0l16.9-9.7l0,0V9.8l0,0L17,0z M28.2,13l-5.6,3.2l0,0L17,13h0l-5.6,3.2
                    l0,0l0,0l5.6,3.2l-5.6,3.2l0,0L17,26l0,0l0,0l5.6-3.2l0,0l5.6,3.2l0,0L17,32.5l0,0L5.8,26l0,0V13l0,0l0,0L17,6.5h0L28.2,13L28.2,13
                    z"></path>
                    <path d="M32.1,2.4c0.3-0.1,0.5-0.3,0.5-0.6c0-0.7-0.6-0.7-0.9-0.7l-1.1,0l-0.1,2.6h0.3l0-1.1h0.7
                    c0.6,0,0.7,0.3,0.7,0.5c0,0.2,0,0.4,0.1,0.6h0.3c0-0.1,0-0.2-0.1-0.7C32.5,2.8,32.4,2.5,32.1,2.4L32.1,2.4z M30.9,2.3l0-1h0.7
                    c0.2,0,0.7,0,0.6,0.5s-0.5,0.5-0.7,0.5L30.9,2.3z"></path>
                    <path d="M31.5,0L31.5,0c-0.6,0-1.2,0.2-1.6,0.7c-0.4,0.4-0.7,1-0.7,1.6c0.1,1.2,1.1,2.2,2.3,2.2s2.3-1,2.3-2.2
                    c0-0.6-0.2-1.2-0.7-1.7S32.2,0,31.5,0z M31.5,4.4c-0.5,0-1.1-0.2-1.4-0.6s-0.6-0.9-0.6-1.4c0-0.5,0.2-1.1,0.6-1.5s0.9-0.6,1.4-0.6
                    l0,0c0.5,0,1.1,0.2,1.4,0.6c0.4,0.4,0.6,0.9,0.6,1.5c0,0.5-0.2,1.1-0.6,1.4S32.1,4.4,31.5,4.4L31.5,4.4z"></path>
                </g>
            </svg>